<svg xmlns="http://www.w3.org/2000/svg" id="export" class="canvas" preserveAspectRatio="xMidYMid meet" style="" width="136" height="929"><rect id="background" fill="#fff" pointer-events="all" style="" width="136" height="929"/><g id="origin" transform="translate(6.171875000000108, 6.171875) scale(1)"><g id="clusters" class="clusters"/><g id="edge-paths" class="edge-paths" style="pointer-events: none;"><defs><marker id="arrowhead" viewBox="0 0 10 10" refX="9" refY="5" markerUnits="strokeWidth" markerWidth="8" markerHeight="6" orient="auto" style="fill: rgb(0, 0, 0);"><path d="M 0 0 L 10 5 L 0 10 L 4 5 z" style="stroke-width: 1;"/></marker><marker id="arrowhead-select" viewBox="0 0 10 10" refX="9" refY="5" markerUnits="strokeWidth" markerWidth="8" markerHeight="6" orient="auto" style="fill: rgba(220, 0, 0, 0.9);"><path d="M 0 0 L 10 5 L 0 10 L 4 5 z" style="stroke-width: 1;"/></marker><marker id="arrowhead-hover" viewBox="0 0 10 10" refX="9" refY="5" markerUnits="strokeWidth" markerWidth="8" markerHeight="6" orient="auto" style="fill: rgba(220, 0, 0, 0.9);"><path d="M 0 0 L 10 5 L 0 10 L 4 5 z" style="stroke-width: 1;"/></marker></defs><path id="edge-serving_default_keras_tensor:0&#10;0" class="edge-path" d="M56.171875,20.96875L56.171875,22.635416666666668C56.171875,24.302083333333332,56.171875,27.635416666666668,56.171875,32.783854166666664C56.171875,37.932291666666664,56.171875,44.895833333333336,56.171875,51.859375C56.171875,58.822916666666664,56.171875,65.78645833333333,56.171875,70.93489583333333C56.171875,76.08333333333333,56.171875,79.41666666666667,56.171875,81.08333333333333L56.171875,82.75" style="stroke: rgb(0, 0, 0); stroke-width: 1px; fill: none; marker-end: url(&quot;#arrowhead&quot;);"/><path id="edge-functional_1/re_lu_1/Relu;functional_1/batch_normalization_1/batchnorm/add_1;functional_1/conv2d_1/convolution;functional_1/batch_normalization_1/batchnorm/sub1&#10;14" class="edge-path" d="M56.171875,155.90625L56.171875,159.38802083333334C56.171875,162.86979166666666,56.171875,169.83333333333334,56.171875,176.796875C56.171875,183.76041666666666,56.171875,190.72395833333334,56.171875,194.20572916666666L56.171875,197.6875" style="stroke: rgb(0, 0, 0); stroke-width: 1px; fill: none; marker-end: url(&quot;#arrowhead&quot;);"/><path id="edge-functional_1/re_lu_1_2/Relu;functional_1/batch_normalization_1_2/batchnorm/add_1;functional_1/batch_normalization_1_2/batchnorm/mul_1;functional_1/depthwise_conv2d_1/depthwise;functional_1/batch_normalization_1_2/batchnorm/mul;functional_1/batch_normalization_1_2/batchnorm/sub&#10;15" class="edge-path" d="M56.171875,270.84375L56.171875,274.3255208333333C56.171875,277.8072916666667,56.171875,284.7708333333333,56.171875,291.734375C56.171875,298.6979166666667,56.171875,305.6614583333333,56.171875,309.1432291666667L56.171875,312.625" style="stroke: rgb(0, 0, 0); stroke-width: 1px; fill: none; marker-end: url(&quot;#arrowhead&quot;);"/><path id="edge-functional_1/re_lu_2_1/Relu;functional_1/batch_normalization_2_1/batchnorm/add_1;functional_1/conv2d_1_2/convolution;functional_1/batch_normalization_2_1/batchnorm/sub&#10;16" class="edge-path" d="M56.171875,385.78125L56.171875,389.2630208333333C56.171875,392.7447916666667,56.171875,399.7083333333333,56.171875,406.671875C56.171875,413.6354166666667,56.171875,420.5989583333333,56.171875,424.0807291666667L56.171875,427.5625" style="stroke: rgb(0, 0, 0); stroke-width: 1px; fill: none; marker-end: url(&quot;#arrowhead&quot;);"/><path id="edge-functional_1/re_lu_3_1/Relu;functional_1/batch_normalization_3_1/batchnorm/add_1;functional_1/batch_normalization_3_1/batchnorm/mul_1;functional_1/depthwise_conv2d_1_2/depthwise;functional_1/batch_normalization_3_1/batchnorm/mul;functional_1/batch_normalization_3_1/batchnorm/sub&#10;17" class="edge-path" d="M56.171875,500.71875L56.171875,504.2005208333333C56.171875,507.6822916666667,56.171875,514.6458333333334,56.171875,521.609375C56.171875,528.5729166666666,56.171875,535.5364583333334,56.171875,539.0182291666666L56.171875,542.5" style="stroke: rgb(0, 0, 0); stroke-width: 1px; fill: none; marker-end: url(&quot;#arrowhead&quot;);"/><path id="edge-functional_1/re_lu_4_1/Relu;functional_1/batch_normalization_4_1/batchnorm/add_1;functional_1/conv2d_2_1/convolution;functional_1/batch_normalization_4_1/batchnorm/sub&#10;18" class="edge-path" d="M56.171875,615.65625L56.171875,619.1380208333334C56.171875,622.6197916666666,56.171875,629.5833333333334,56.171875,636.546875C56.171875,643.5104166666666,56.171875,650.4739583333334,56.171875,653.9557291666666L56.171875,657.4375" style="stroke: rgb(0, 0, 0); stroke-width: 1px; fill: none; marker-end: url(&quot;#arrowhead&quot;);"/><path id="edge-functional_1/conv2d_3_1/BiasAdd;functional_1/conv2d_3_1/convolution;functional_1/conv2d_3_1/Squeeze&#10;19" class="edge-path" d="M56.171875,709.625L56.171875,713.1067708333334C56.171875,716.5885416666666,56.171875,723.5520833333334,56.171875,730.515625C56.171875,737.4791666666666,56.171875,744.4427083333334,56.171875,747.9244791666666L56.171875,751.40625" style="stroke: rgb(0, 0, 0); stroke-width: 1px; fill: none; marker-end: url(&quot;#arrowhead&quot;);"/><path id="edge-functional_1/global_average_pooling2d_1/Mean&#10;20" class="edge-path" d="M56.171875,790.984375L56.171875,794.4661458333334C56.171875,797.9479166666666,56.171875,804.9114583333334,56.171875,811.875C56.171875,818.8385416666666,56.171875,825.8020833333334,56.171875,829.2838541666666L56.171875,832.765625" style="stroke: rgb(0, 0, 0); stroke-width: 1px; fill: none; marker-end: url(&quot;#arrowhead&quot;);"/><path id="edge-StatefulPartitionedCall_1:0&#10;21" class="edge-path" d="M56.171875,853.734375L56.171875,857.2161458333334C56.171875,860.6979166666666,56.171875,867.6614583333334,56.171875,874.625C56.171875,881.5885416666666,56.171875,888.5520833333334,56.171875,892.0338541666666L56.171875,895.515625" style="stroke: rgb(0, 0, 0); stroke-width: 1px; fill: none; marker-end: url(&quot;#arrowhead&quot;);"/></g><g id="edge-labels" class="edge-labels"><text class="edge-label" id="edge-label-edge-serving_default_keras_tensor:0&#10;0" transform="translate(61.171875,45.96875)" style="opacity: 1; font-family: -apple-system, BlinkMacSystemFont, &quot;Segoe WPC&quot;, &quot;Segoe UI&quot;, Ubuntu, &quot;Droid Sans&quot;, sans-serif, &quot;PingFang SC&quot;; font-size: 10px;"><tspan xml:space="preserve" dy="1em" x="1">?×61×40×1</tspan></text><text class="edge-label" id="edge-label-edge-functional_1/re_lu_1/Relu;functional_1/batch_normalization_1/batchnorm/add_1;functional_1/conv2d_1/convolution;functional_1/batch_normalization_1/batchnorm/sub1&#10;14" transform="translate(61.171875,170.90625)" style="opacity: 1; font-family: -apple-system, BlinkMacSystemFont, &quot;Segoe WPC&quot;, &quot;Segoe UI&quot;, Ubuntu, &quot;Droid Sans&quot;, sans-serif, &quot;PingFang SC&quot;; font-size: 10px;"><tspan xml:space="preserve" dy="1em" x="1">?×31×20×32</tspan></text><text class="edge-label" id="edge-label-edge-functional_1/re_lu_1_2/Relu;functional_1/batch_normalization_1_2/batchnorm/add_1;functional_1/batch_normalization_1_2/batchnorm/mul_1;functional_1/depthwise_conv2d_1/depthwise;functional_1/batch_normalization_1_2/batchnorm/mul;functional_1/batch_normalization_1_2/batchnorm/sub&#10;15" transform="translate(61.171875,285.84375)" style="opacity: 1; font-family: -apple-system, BlinkMacSystemFont, &quot;Segoe WPC&quot;, &quot;Segoe UI&quot;, Ubuntu, &quot;Droid Sans&quot;, sans-serif, &quot;PingFang SC&quot;; font-size: 10px;"><tspan xml:space="preserve" dy="1em" x="1">?×31×20×32</tspan></text><text class="edge-label" id="edge-label-edge-functional_1/re_lu_2_1/Relu;functional_1/batch_normalization_2_1/batchnorm/add_1;functional_1/conv2d_1_2/convolution;functional_1/batch_normalization_2_1/batchnorm/sub&#10;16" transform="translate(61.171875,400.78125)" style="opacity: 1; font-family: -apple-system, BlinkMacSystemFont, &quot;Segoe WPC&quot;, &quot;Segoe UI&quot;, Ubuntu, &quot;Droid Sans&quot;, sans-serif, &quot;PingFang SC&quot;; font-size: 10px;"><tspan xml:space="preserve" dy="1em" x="1">?×31×20×48</tspan></text><text class="edge-label" id="edge-label-edge-functional_1/re_lu_3_1/Relu;functional_1/batch_normalization_3_1/batchnorm/add_1;functional_1/batch_normalization_3_1/batchnorm/mul_1;functional_1/depthwise_conv2d_1_2/depthwise;functional_1/batch_normalization_3_1/batchnorm/mul;functional_1/batch_normalization_3_1/batchnorm/sub&#10;17" transform="translate(61.171875,515.71875)" style="opacity: 1; font-family: -apple-system, BlinkMacSystemFont, &quot;Segoe WPC&quot;, &quot;Segoe UI&quot;, Ubuntu, &quot;Droid Sans&quot;, sans-serif, &quot;PingFang SC&quot;; font-size: 10px;"><tspan xml:space="preserve" dy="1em" x="1">?×31×20×48</tspan></text><text class="edge-label" id="edge-label-edge-functional_1/re_lu_4_1/Relu;functional_1/batch_normalization_4_1/batchnorm/add_1;functional_1/conv2d_2_1/convolution;functional_1/batch_normalization_4_1/batchnorm/sub&#10;18" transform="translate(61.171875,630.65625)" style="opacity: 1; font-family: -apple-system, BlinkMacSystemFont, &quot;Segoe WPC&quot;, &quot;Segoe UI&quot;, Ubuntu, &quot;Droid Sans&quot;, sans-serif, &quot;PingFang SC&quot;; font-size: 10px;"><tspan xml:space="preserve" dy="1em" x="1">?×31×20×64</tspan></text><text class="edge-label" id="edge-label-edge-functional_1/conv2d_3_1/BiasAdd;functional_1/conv2d_3_1/convolution;functional_1/conv2d_3_1/Squeeze&#10;19" transform="translate(61.171875,724.625)" style="opacity: 1; font-family: -apple-system, BlinkMacSystemFont, &quot;Segoe WPC&quot;, &quot;Segoe UI&quot;, Ubuntu, &quot;Droid Sans&quot;, sans-serif, &quot;PingFang SC&quot;; font-size: 10px;"><tspan xml:space="preserve" dy="1em" x="1">?×31×20×3</tspan></text><text class="edge-label" id="edge-label-edge-functional_1/global_average_pooling2d_1/Mean&#10;20" transform="translate(61.171875,805.984375)" style="opacity: 1; font-family: -apple-system, BlinkMacSystemFont, &quot;Segoe WPC&quot;, &quot;Segoe UI&quot;, Ubuntu, &quot;Droid Sans&quot;, sans-serif, &quot;PingFang SC&quot;; font-size: 10px;"><tspan xml:space="preserve" dy="1em" x="1">?×3</tspan></text><text class="edge-label" id="edge-label-edge-StatefulPartitionedCall_1:0&#10;21" transform="translate(61.171875,868.734375)" style="opacity: 1; font-family: -apple-system, BlinkMacSystemFont, &quot;Segoe WPC&quot;, &quot;Segoe UI&quot;, Ubuntu, &quot;Droid Sans&quot;, sans-serif, &quot;PingFang SC&quot;; font-size: 10px;"><tspan xml:space="preserve" dy="1em" x="1">?×3</tspan></text></g><g id="nodes" class="nodes"><g id="input-name-keras_tensor" class="node graph-input" transform="translate(14.859375,0)" style=""><g class="node-item graph-item-input" transform="translate(0,0)"><path d="M5,0h72.625a5,5 0 0 1 5,5v10.96875a5,5 0 0 1 -5,5h-72.625a5,5 0 0 1 -5,-5v-10.96875a5,5 0 0 1 5,-5z" style="stroke: rgb(0, 0, 0); fill: rgb(238, 238, 238); stroke-width: 0px;"/><text x="6" y="14.640625" style="font-family: -apple-system, BlinkMacSystemFont, &quot;Segoe WPC&quot;, &quot;Segoe UI&quot;, Ubuntu, &quot;Droid Sans&quot;, sans-serif, &quot;PingFang SC&quot;; font-size: 11px; text-rendering: geometricprecision;">keras_tensor</text><title>int8[-1,61,40,1]</title></g><path class="node node-border" d="M5,0h72.625a5,5 0 0 1 5,5v10.96875a5,5 0 0 1 -5,5h-72.625a5,5 0 0 1 -5,-5v-10.96875a5,5 0 0 1 5,-5z" style="stroke: rgb(51, 51, 51); fill: none; stroke-width: 1px;"/></g><g id="node-id-0" class="node graph-node" transform="translate(7.3046875,82.75)" style=""><g class="node-item node-item-type node-item-type-layer" transform="translate(0,0)"><path d="M5,0h87.734375a5,5 0 0 1 5,5v15.96875a0,0 0 0 1 0,0h-97.734375a0,0 0 0 1 0,0v-15.96875a5,5 0 0 1 5,-5z" style="stroke: rgb(0, 0, 0); fill: rgb(51, 85, 136); stroke-width: 0px;"/><text x="6" y="14.640625" style="font-family: -apple-system, BlinkMacSystemFont, &quot;Segoe WPC&quot;, &quot;Segoe UI&quot;, Ubuntu, &quot;Droid Sans&quot;, sans-serif, &quot;PingFang SC&quot;; font-size: 11px; text-rendering: geometricprecision; fill: rgb(255, 255, 255);">Conv2D</text><title>0</title></g><g class="node-argument-list" transform="translate(0,20.96875)"><path d="M0,0h97.734375a0,0 0 0 1 0,0v31.21875a0,0 0 0 1 0,0h-97.734375a0,0 0 0 1 0,0v-31.21875a0,0 0 0 1 0,0z" style="stroke: rgb(0, 0, 0); fill: rgb(255, 255, 255); stroke-width: 0px;"/><g class="node-argument"><rect rx="3" ry="3" x="3" y="3" width="91.734375" height="12.609375" style="fill: transparent;"/><text xml:space="preserve" x="6" y="12.703125" style="font-family: -apple-system, BlinkMacSystemFont, &quot;Segoe WPC&quot;, &quot;Segoe UI&quot;, Ubuntu, &quot;Droid Sans&quot;, sans-serif, &quot;PingFang SC&quot;; font-size: 9px; font-weight: normal; text-rendering: geometricprecision;"><title>int8[32,3,3,1]</title><tspan style="font-weight: bold;">filter</tspan><tspan>〈32×3×3×1〉</tspan></text></g><g class="node-argument"><rect rx="3" ry="3" x="3" y="15.609375" width="91.734375" height="12.609375" style="fill: transparent;"/><text xml:space="preserve" x="6" y="25.3125" style="font-family: -apple-system, BlinkMacSystemFont, &quot;Segoe WPC&quot;, &quot;Segoe UI&quot;, Ubuntu, &quot;Droid Sans&quot;, sans-serif, &quot;PingFang SC&quot;; font-size: 9px; font-weight: normal; text-rendering: geometricprecision;"><title>int32[32]</title><tspan style="font-weight: bold;">bias</tspan><tspan>〈32〉</tspan></text></g><line class="node" x1="0" x2="97.734375" y1="0" y2="0" style="stroke: rgb(51, 51, 51); fill: none; stroke-width: 1px;"/></g><g class="node-item node-item-type node-item-type-activation" transform="translate(0,52.1875)"><path d="M0,0h97.734375a0,0 0 0 1 0,0v15.96875a5,5 0 0 1 -5,5h-87.734375a5,5 0 0 1 -5,-5v-15.96875a0,0 0 0 1 0,0z" style="stroke: rgb(0, 0, 0); fill: rgb(112, 41, 33); stroke-width: 0px;"/><text x="6" y="14.640625" style="font-family: -apple-system, BlinkMacSystemFont, &quot;Segoe WPC&quot;, &quot;Segoe UI&quot;, Ubuntu, &quot;Droid Sans&quot;, sans-serif, &quot;PingFang SC&quot;; font-size: 11px; text-rendering: geometricprecision; fill: rgb(255, 255, 255);">Relu</text></g><line class="node" x1="0" x2="97.734375" y1="52.1875" y2="52.1875" style="stroke: rgb(51, 51, 51); fill: none; stroke-width: 1px;"/><path class="node node-border" d="M5,0h87.734375a5,5 0 0 1 5,5v63.15625a5,5 0 0 1 -5,5h-87.734375a5,5 0 0 1 -5,-5v-63.15625a5,5 0 0 1 5,-5z" style="stroke: rgb(51, 51, 51); fill: none; stroke-width: 1px;"/></g><g id="node-id-2" class="node graph-node" transform="translate(0.234375,197.6875)" style=""><g class="node-item node-item-type node-item-type-layer" transform="translate(0,0)"><path d="M5,0h101.875a5,5 0 0 1 5,5v15.96875a0,0 0 0 1 0,0h-111.875a0,0 0 0 1 0,0v-15.96875a5,5 0 0 1 5,-5z" style="stroke: rgb(0, 0, 0); fill: rgb(51, 85, 136); stroke-width: 0px;"/><text x="6" y="14.640625" style="font-family: -apple-system, BlinkMacSystemFont, &quot;Segoe WPC&quot;, &quot;Segoe UI&quot;, Ubuntu, &quot;Droid Sans&quot;, sans-serif, &quot;PingFang SC&quot;; font-size: 11px; text-rendering: geometricprecision; fill: rgb(255, 255, 255);">DepthwiseConv2D</text><title>1</title></g><g class="node-argument-list" transform="translate(0,20.96875)"><path d="M0,0h111.875a0,0 0 0 1 0,0v31.21875a0,0 0 0 1 0,0h-111.875a0,0 0 0 1 0,0v-31.21875a0,0 0 0 1 0,0z" style="stroke: rgb(0, 0, 0); fill: rgb(255, 255, 255); stroke-width: 0px;"/><g class="node-argument"><rect rx="3" ry="3" x="3" y="3" width="105.875" height="12.609375" style="fill: transparent;"/><text xml:space="preserve" x="6" y="12.703125" style="font-family: -apple-system, BlinkMacSystemFont, &quot;Segoe WPC&quot;, &quot;Segoe UI&quot;, Ubuntu, &quot;Droid Sans&quot;, sans-serif, &quot;PingFang SC&quot;; font-size: 9px; font-weight: normal; text-rendering: geometricprecision;"><title>int8[1,3,3,32]</title><tspan style="font-weight: bold;">weights</tspan><tspan>〈1×3×3×32〉</tspan></text></g><g class="node-argument"><rect rx="3" ry="3" x="3" y="15.609375" width="105.875" height="12.609375" style="fill: transparent;"/><text xml:space="preserve" x="6" y="25.3125" style="font-family: -apple-system, BlinkMacSystemFont, &quot;Segoe WPC&quot;, &quot;Segoe UI&quot;, Ubuntu, &quot;Droid Sans&quot;, sans-serif, &quot;PingFang SC&quot;; font-size: 9px; font-weight: normal; text-rendering: geometricprecision;"><title>int32[32]</title><tspan style="font-weight: bold;">bias</tspan><tspan>〈32〉</tspan></text></g><line class="node" x1="0" x2="111.875" y1="0" y2="0" style="stroke: rgb(51, 51, 51); fill: none; stroke-width: 1px;"/></g><g class="node-item node-item-type node-item-type-activation" transform="translate(0,52.1875)"><path d="M0,0h111.875a0,0 0 0 1 0,0v15.96875a5,5 0 0 1 -5,5h-101.875a5,5 0 0 1 -5,-5v-15.96875a0,0 0 0 1 0,0z" style="stroke: rgb(0, 0, 0); fill: rgb(112, 41, 33); stroke-width: 0px;"/><text x="6" y="14.640625" style="font-family: -apple-system, BlinkMacSystemFont, &quot;Segoe WPC&quot;, &quot;Segoe UI&quot;, Ubuntu, &quot;Droid Sans&quot;, sans-serif, &quot;PingFang SC&quot;; font-size: 11px; text-rendering: geometricprecision; fill: rgb(255, 255, 255);">Relu</text></g><line class="node" x1="0" x2="111.875" y1="52.1875" y2="52.1875" style="stroke: rgb(51, 51, 51); fill: none; stroke-width: 1px;"/><path class="node node-border" d="M5,0h101.875a5,5 0 0 1 5,5v63.15625a5,5 0 0 1 -5,5h-101.875a5,5 0 0 1 -5,-5v-63.15625a5,5 0 0 1 5,-5z" style="stroke: rgb(51, 51, 51); fill: none; stroke-width: 1px;"/></g><g id="node-id-4" class="node graph-node" transform="translate(5.0078125,312.625)" style=""><g class="node-item node-item-type node-item-type-layer" transform="translate(0,0)"><path d="M5,0h92.328125a5,5 0 0 1 5,5v15.96875a0,0 0 0 1 0,0h-102.328125a0,0 0 0 1 0,0v-15.96875a5,5 0 0 1 5,-5z" style="stroke: rgb(0, 0, 0); fill: rgb(51, 85, 136); stroke-width: 0px;"/><text x="6" y="14.640625" style="font-family: -apple-system, BlinkMacSystemFont, &quot;Segoe WPC&quot;, &quot;Segoe UI&quot;, Ubuntu, &quot;Droid Sans&quot;, sans-serif, &quot;PingFang SC&quot;; font-size: 11px; text-rendering: geometricprecision; fill: rgb(255, 255, 255);">Conv2D</text><title>2</title></g><g class="node-argument-list" transform="translate(0,20.96875)"><path d="M0,0h102.328125a0,0 0 0 1 0,0v31.21875a0,0 0 0 1 0,0h-102.328125a0,0 0 0 1 0,0v-31.21875a0,0 0 0 1 0,0z" style="stroke: rgb(0, 0, 0); fill: rgb(255, 255, 255); stroke-width: 0px;"/><g class="node-argument"><rect rx="3" ry="3" x="3" y="3" width="96.328125" height="12.609375" style="fill: transparent;"/><text xml:space="preserve" x="6" y="12.703125" style="font-family: -apple-system, BlinkMacSystemFont, &quot;Segoe WPC&quot;, &quot;Segoe UI&quot;, Ubuntu, &quot;Droid Sans&quot;, sans-serif, &quot;PingFang SC&quot;; font-size: 9px; font-weight: normal; text-rendering: geometricprecision;"><title>int8[48,1,1,32]</title><tspan style="font-weight: bold;">filter</tspan><tspan>〈48×1×1×32〉</tspan></text></g><g class="node-argument"><rect rx="3" ry="3" x="3" y="15.609375" width="96.328125" height="12.609375" style="fill: transparent;"/><text xml:space="preserve" x="6" y="25.3125" style="font-family: -apple-system, BlinkMacSystemFont, &quot;Segoe WPC&quot;, &quot;Segoe UI&quot;, Ubuntu, &quot;Droid Sans&quot;, sans-serif, &quot;PingFang SC&quot;; font-size: 9px; font-weight: normal; text-rendering: geometricprecision;"><title>int32[48]</title><tspan style="font-weight: bold;">bias</tspan><tspan>〈48〉</tspan></text></g><line class="node" x1="0" x2="102.328125" y1="0" y2="0" style="stroke: rgb(51, 51, 51); fill: none; stroke-width: 1px;"/></g><g class="node-item node-item-type node-item-type-activation" transform="translate(0,52.1875)"><path d="M0,0h102.328125a0,0 0 0 1 0,0v15.96875a5,5 0 0 1 -5,5h-92.328125a5,5 0 0 1 -5,-5v-15.96875a0,0 0 0 1 0,0z" style="stroke: rgb(0, 0, 0); fill: rgb(112, 41, 33); stroke-width: 0px;"/><text x="6" y="14.640625" style="font-family: -apple-system, BlinkMacSystemFont, &quot;Segoe WPC&quot;, &quot;Segoe UI&quot;, Ubuntu, &quot;Droid Sans&quot;, sans-serif, &quot;PingFang SC&quot;; font-size: 11px; text-rendering: geometricprecision; fill: rgb(255, 255, 255);">Relu</text></g><line class="node" x1="0" x2="102.328125" y1="52.1875" y2="52.1875" style="stroke: rgb(51, 51, 51); fill: none; stroke-width: 1px;"/><path class="node node-border" d="M5,0h92.328125a5,5 0 0 1 5,5v63.15625a5,5 0 0 1 -5,5h-92.328125a5,5 0 0 1 -5,-5v-63.15625a5,5 0 0 1 5,-5z" style="stroke: rgb(51, 51, 51); fill: none; stroke-width: 1px;"/></g><g id="node-id-6" class="node graph-node" transform="translate(0,427.5625)" style=""><g class="node-item node-item-type node-item-type-layer" transform="translate(0,0)"><path d="M5,0h102.34375a5,5 0 0 1 5,5v15.96875a0,0 0 0 1 0,0h-112.34375a0,0 0 0 1 0,0v-15.96875a5,5 0 0 1 5,-5z" style="stroke: rgb(0, 0, 0); fill: rgb(51, 85, 136); stroke-width: 0px;"/><text x="6" y="14.640625" style="font-family: -apple-system, BlinkMacSystemFont, &quot;Segoe WPC&quot;, &quot;Segoe UI&quot;, Ubuntu, &quot;Droid Sans&quot;, sans-serif, &quot;PingFang SC&quot;; font-size: 11px; text-rendering: geometricprecision; fill: rgb(255, 255, 255);">DepthwiseConv2D</text><title>3</title></g><g class="node-argument-list" transform="translate(0,20.96875)"><path d="M0,0h112.34375a0,0 0 0 1 0,0v31.21875a0,0 0 0 1 0,0h-112.34375a0,0 0 0 1 0,0v-31.21875a0,0 0 0 1 0,0z" style="stroke: rgb(0, 0, 0); fill: rgb(255, 255, 255); stroke-width: 0px;"/><g class="node-argument"><rect rx="3" ry="3" x="3" y="3" width="106.34375" height="12.609375" style="fill: transparent;"/><text xml:space="preserve" x="6" y="12.703125" style="font-family: -apple-system, BlinkMacSystemFont, &quot;Segoe WPC&quot;, &quot;Segoe UI&quot;, Ubuntu, &quot;Droid Sans&quot;, sans-serif, &quot;PingFang SC&quot;; font-size: 9px; font-weight: normal; text-rendering: geometricprecision;"><title>int8[1,3,3,48]</title><tspan style="font-weight: bold;">weights</tspan><tspan>〈1×3×3×48〉</tspan></text></g><g class="node-argument"><rect rx="3" ry="3" x="3" y="15.609375" width="106.34375" height="12.609375" style="fill: transparent;"/><text xml:space="preserve" x="6" y="25.3125" style="font-family: -apple-system, BlinkMacSystemFont, &quot;Segoe WPC&quot;, &quot;Segoe UI&quot;, Ubuntu, &quot;Droid Sans&quot;, sans-serif, &quot;PingFang SC&quot;; font-size: 9px; font-weight: normal; text-rendering: geometricprecision;"><title>int32[48]</title><tspan style="font-weight: bold;">bias</tspan><tspan>〈48〉</tspan></text></g><line class="node" x1="0" x2="112.34375" y1="0" y2="0" style="stroke: rgb(51, 51, 51); fill: none; stroke-width: 1px;"/></g><g class="node-item node-item-type node-item-type-activation" transform="translate(0,52.1875)"><path d="M0,0h112.34375a0,0 0 0 1 0,0v15.96875a5,5 0 0 1 -5,5h-102.34375a5,5 0 0 1 -5,-5v-15.96875a0,0 0 0 1 0,0z" style="stroke: rgb(0, 0, 0); fill: rgb(112, 41, 33); stroke-width: 0px;"/><text x="6" y="14.640625" style="font-family: -apple-system, BlinkMacSystemFont, &quot;Segoe WPC&quot;, &quot;Segoe UI&quot;, Ubuntu, &quot;Droid Sans&quot;, sans-serif, &quot;PingFang SC&quot;; font-size: 11px; text-rendering: geometricprecision; fill: rgb(255, 255, 255);">Relu</text></g><line class="node" x1="0" x2="112.34375" y1="52.1875" y2="52.1875" style="stroke: rgb(51, 51, 51); fill: none; stroke-width: 1px;"/><path class="node node-border" d="M5,0h102.34375a5,5 0 0 1 5,5v63.15625a5,5 0 0 1 -5,5h-102.34375a5,5 0 0 1 -5,-5v-63.15625a5,5 0 0 1 5,-5z" style="stroke: rgb(51, 51, 51); fill: none; stroke-width: 1px;"/></g><g id="node-id-8" class="node graph-node" transform="translate(4.7890625,542.5)" style=""><g class="node-item node-item-type node-item-type-layer" transform="translate(0,0)"><path d="M5,0h92.765625a5,5 0 0 1 5,5v15.96875a0,0 0 0 1 0,0h-102.765625a0,0 0 0 1 0,0v-15.96875a5,5 0 0 1 5,-5z" style="stroke: rgb(0, 0, 0); fill: rgb(51, 85, 136); stroke-width: 0px;"/><text x="6" y="14.640625" style="font-family: -apple-system, BlinkMacSystemFont, &quot;Segoe WPC&quot;, &quot;Segoe UI&quot;, Ubuntu, &quot;Droid Sans&quot;, sans-serif, &quot;PingFang SC&quot;; font-size: 11px; text-rendering: geometricprecision; fill: rgb(255, 255, 255);">Conv2D</text><title>4</title></g><g class="node-argument-list" transform="translate(0,20.96875)"><path d="M0,0h102.765625a0,0 0 0 1 0,0v31.21875a0,0 0 0 1 0,0h-102.765625a0,0 0 0 1 0,0v-31.21875a0,0 0 0 1 0,0z" style="stroke: rgb(0, 0, 0); fill: rgb(255, 255, 255); stroke-width: 0px;"/><g class="node-argument"><rect rx="3" ry="3" x="3" y="3" width="96.765625" height="12.609375" style="fill: transparent;"/><text xml:space="preserve" x="6" y="12.703125" style="font-family: -apple-system, BlinkMacSystemFont, &quot;Segoe WPC&quot;, &quot;Segoe UI&quot;, Ubuntu, &quot;Droid Sans&quot;, sans-serif, &quot;PingFang SC&quot;; font-size: 9px; font-weight: normal; text-rendering: geometricprecision;"><title>int8[64,1,1,48]</title><tspan style="font-weight: bold;">filter</tspan><tspan>〈64×1×1×48〉</tspan></text></g><g class="node-argument"><rect rx="3" ry="3" x="3" y="15.609375" width="96.765625" height="12.609375" style="fill: transparent;"/><text xml:space="preserve" x="6" y="25.3125" style="font-family: -apple-system, BlinkMacSystemFont, &quot;Segoe WPC&quot;, &quot;Segoe UI&quot;, Ubuntu, &quot;Droid Sans&quot;, sans-serif, &quot;PingFang SC&quot;; font-size: 9px; font-weight: normal; text-rendering: geometricprecision;"><title>int32[64]</title><tspan style="font-weight: bold;">bias</tspan><tspan>〈64〉</tspan></text></g><line class="node" x1="0" x2="102.765625" y1="0" y2="0" style="stroke: rgb(51, 51, 51); fill: none; stroke-width: 1px;"/></g><g class="node-item node-item-type node-item-type-activation" transform="translate(0,52.1875)"><path d="M0,0h102.765625a0,0 0 0 1 0,0v15.96875a5,5 0 0 1 -5,5h-92.765625a5,5 0 0 1 -5,-5v-15.96875a0,0 0 0 1 0,0z" style="stroke: rgb(0, 0, 0); fill: rgb(112, 41, 33); stroke-width: 0px;"/><text x="6" y="14.640625" style="font-family: -apple-system, BlinkMacSystemFont, &quot;Segoe WPC&quot;, &quot;Segoe UI&quot;, Ubuntu, &quot;Droid Sans&quot;, sans-serif, &quot;PingFang SC&quot;; font-size: 11px; text-rendering: geometricprecision; fill: rgb(255, 255, 255);">Relu</text></g><line class="node" x1="0" x2="102.765625" y1="52.1875" y2="52.1875" style="stroke: rgb(51, 51, 51); fill: none; stroke-width: 1px;"/><path class="node node-border" d="M5,0h92.765625a5,5 0 0 1 5,5v63.15625a5,5 0 0 1 -5,5h-92.765625a5,5 0 0 1 -5,-5v-63.15625a5,5 0 0 1 5,-5z" style="stroke: rgb(51, 51, 51); fill: none; stroke-width: 1px;"/></g><g id="node-id-10" class="node graph-node" transform="translate(7.8203125,657.4375)" style=""><g class="node-item node-item-type node-item-type-layer" transform="translate(0,0)"><path d="M5,0h86.703125a5,5 0 0 1 5,5v15.96875a0,0 0 0 1 0,0h-96.703125a0,0 0 0 1 0,0v-15.96875a5,5 0 0 1 5,-5z" style="stroke: rgb(0, 0, 0); fill: rgb(51, 85, 136); stroke-width: 0px;"/><text x="6" y="14.640625" style="font-family: -apple-system, BlinkMacSystemFont, &quot;Segoe WPC&quot;, &quot;Segoe UI&quot;, Ubuntu, &quot;Droid Sans&quot;, sans-serif, &quot;PingFang SC&quot;; font-size: 11px; text-rendering: geometricprecision; fill: rgb(255, 255, 255);">Conv2D</text><title>5</title></g><g class="node-argument-list" transform="translate(0,20.96875)"><path d="M0,0h96.703125a0,0 0 0 1 0,0v26.21875a5,5 0 0 1 -5,5h-86.703125a5,5 0 0 1 -5,-5v-26.21875a0,0 0 0 1 0,0z" style="stroke: rgb(0, 0, 0); fill: rgb(255, 255, 255); stroke-width: 0px;"/><g class="node-argument"><rect rx="3" ry="3" x="3" y="3" width="90.703125" height="12.609375" style="fill: transparent;"/><text xml:space="preserve" x="6" y="12.703125" style="font-family: -apple-system, BlinkMacSystemFont, &quot;Segoe WPC&quot;, &quot;Segoe UI&quot;, Ubuntu, &quot;Droid Sans&quot;, sans-serif, &quot;PingFang SC&quot;; font-size: 9px; font-weight: normal; text-rendering: geometricprecision;"><title>int8[3,1,1,64]</title><tspan style="font-weight: bold;">filter</tspan><tspan>〈3×1×1×64〉</tspan></text></g><g class="node-argument"><rect rx="3" ry="3" x="3" y="15.609375" width="90.703125" height="12.609375" style="fill: transparent;"/><text xml:space="preserve" x="6" y="25.3125" style="font-family: -apple-system, BlinkMacSystemFont, &quot;Segoe WPC&quot;, &quot;Segoe UI&quot;, Ubuntu, &quot;Droid Sans&quot;, sans-serif, &quot;PingFang SC&quot;; font-size: 9px; font-weight: normal; text-rendering: geometricprecision;"><title>int32[3]</title><tspan style="font-weight: bold;">bias</tspan><tspan>〈3〉</tspan></text></g><line class="node" x1="0" x2="96.703125" y1="0" y2="0" style="stroke: rgb(51, 51, 51); fill: none; stroke-width: 1px;"/></g><path class="node node-border" d="M5,0h86.703125a5,5 0 0 1 5,5v42.1875a5,5 0 0 1 -5,5h-86.703125a5,5 0 0 1 -5,-5v-42.1875a5,5 0 0 1 5,-5z" style="stroke: rgb(51, 51, 51); fill: none; stroke-width: 1px;"/></g><g id="node-id-11" class="node graph-node" transform="translate(18.671875,751.40625)" style=""><g class="node-item node-item-type" transform="translate(0,0)"><path d="M5,0h65a5,5 0 0 1 5,5v15.96875a0,0 0 0 1 0,0h-75a0,0 0 0 1 0,0v-15.96875a5,5 0 0 1 5,-5z" style="stroke: rgb(0, 0, 0); fill: rgb(51, 51, 51); stroke-width: 0px;"/><text x="6" y="14.640625" style="font-family: -apple-system, BlinkMacSystemFont, &quot;Segoe WPC&quot;, &quot;Segoe UI&quot;, Ubuntu, &quot;Droid Sans&quot;, sans-serif, &quot;PingFang SC&quot;; font-size: 11px; text-rendering: geometricprecision; fill: rgb(255, 255, 255);">Mean</text><title>6</title></g><g class="node-argument-list" transform="translate(0,20.96875)"><path d="M0,0h75a0,0 0 0 1 0,0v13.609375a5,5 0 0 1 -5,5h-65a5,5 0 0 1 -5,-5v-13.609375a0,0 0 0 1 0,0z" style="stroke: rgb(0, 0, 0); fill: rgb(255, 255, 255); stroke-width: 0px;"/><g class="node-argument"><rect rx="3" ry="3" x="3" y="3" width="69" height="12.609375" style="fill: transparent;"/><text xml:space="preserve" x="6" y="12.703125" style="font-family: -apple-system, BlinkMacSystemFont, &quot;Segoe WPC&quot;, &quot;Segoe UI&quot;, Ubuntu, &quot;Droid Sans&quot;, sans-serif, &quot;PingFang SC&quot;; font-size: 9px; font-weight: normal; text-rendering: geometricprecision;"><title>int32[2]</title><tspan style="font-weight: bold;">axis</tspan><tspan>〈2〉</tspan></text></g><line class="node" x1="0" x2="75" y1="0" y2="0" style="stroke: rgb(51, 51, 51); fill: none; stroke-width: 1px;"/></g><path class="node node-border" d="M5,0h65a5,5 0 0 1 5,5v29.578125a5,5 0 0 1 -5,5h-65a5,5 0 0 1 -5,-5v-29.578125a5,5 0 0 1 5,-5z" style="stroke: rgb(51, 51, 51); fill: none; stroke-width: 1px;"/></g><g id="node-id-12" class="node graph-node" transform="translate(27.4921875,832.765625)" style=""><g class="node-item node-item-type node-item-type-activation" transform="translate(0,0)"><path d="M5,0h47.359375a5,5 0 0 1 5,5v10.96875a5,5 0 0 1 -5,5h-47.359375a5,5 0 0 1 -5,-5v-10.96875a5,5 0 0 1 5,-5z" style="stroke: rgb(0, 0, 0); fill: rgb(112, 41, 33); stroke-width: 0px;"/><text x="6" y="14.640625" style="font-family: -apple-system, BlinkMacSystemFont, &quot;Segoe WPC&quot;, &quot;Segoe UI&quot;, Ubuntu, &quot;Droid Sans&quot;, sans-serif, &quot;PingFang SC&quot;; font-size: 11px; text-rendering: geometricprecision; fill: rgb(255, 255, 255);">Softmax</text><title>7</title></g><path class="node node-border" d="M5,0h47.359375a5,5 0 0 1 5,5v10.96875a5,5 0 0 1 -5,5h-47.359375a5,5 0 0 1 -5,-5v-10.96875a5,5 0 0 1 5,-5z" style="stroke: rgb(51, 51, 51); fill: none; stroke-width: 1px;"/></g><g class="node" transform="translate(25.21875,895.515625)" style=""><g class="node-item graph-item-output" transform="translate(0,0)"><path d="M5,0h51.90625a5,5 0 0 1 5,5v10.96875a5,5 0 0 1 -5,5h-51.90625a5,5 0 0 1 -5,-5v-10.96875a5,5 0 0 1 5,-5z" style="stroke: rgb(0, 0, 0); fill: rgb(238, 238, 238); stroke-width: 0px;"/><text x="6" y="14.640625" style="font-family: -apple-system, BlinkMacSystemFont, &quot;Segoe WPC&quot;, &quot;Segoe UI&quot;, Ubuntu, &quot;Droid Sans&quot;, sans-serif, &quot;PingFang SC&quot;; font-size: 11px; text-rendering: geometricprecision;">output_0</text><title>int8[-1,3]</title></g><path class="node node-border" d="M5,0h51.90625a5,5 0 0 1 5,5v10.96875a5,5 0 0 1 -5,5h-51.90625a5,5 0 0 1 -5,-5v-10.96875a5,5 0 0 1 5,-5z" style="stroke: rgb(51, 51, 51); fill: none; stroke-width: 1px;"/></g></g></g></svg>